<svg width="223" height="251" viewBox="0 0 223 251" fill="none" xmlns="http://www.w3.org/2000/svg">
<g filter="url(#filter0_d_0_1)">
<path fill-rule="evenodd" clip-rule="evenodd" d="M134.808 50.5452L134.996 50.7385L63.3237 120.474L136.127 193.277L135.833 193.571L136.175 193.637L127.197 240.346L127.303 240.454L125.173 242.566L6.16563 122.575L6.1033 122.636L4 120.497L122.756 3.73437L122.723 3.56626L122.976 3.51769L123.068 3.42768L123.127 3.48858L125.669 3L134.808 50.5452ZM131.617 49.8401L59.0812 120.416L61.1733 122.566L132.979 194.372L124.638 237.766L8.30484 120.472L123.436 7.27286L131.617 49.8401Z" fill="url(#paint0_linear_0_1)" shape-rendering="crispEdges"/>
</g>
<g filter="url(#filter1_d_0_1)">
<path fill-rule="evenodd" clip-rule="evenodd" d="M219 0.259979V3.25998L172.985 242.697L172.525 242.613V243H133.525V242.614L132.014 242.336L178 3.08673V0.259979H219ZM135.518 240H170.448L215.945 3.25998H181.022L135.518 240Z" fill="url(#paint1_linear_0_1)" shape-rendering="crispEdges"/>
</g>
<defs>
<filter id="filter0_d_0_1" x="0" y="3" width="140.175" height="247.566" filterUnits="userSpaceOnUse" color-interpolation-filters="sRGB">
<feFlood flood-opacity="0" result="BackgroundImageFix"/>
<feColorMatrix in="SourceAlpha" type="matrix" values="0 0 0 0 0 0 0 0 0 0 0 0 0 0 0 0 0 0 127 0" result="hardAlpha"/>
<feOffset dy="4"/>
<feGaussianBlur stdDeviation="2"/>
<feComposite in2="hardAlpha" operator="out"/>
<feColorMatrix type="matrix" values="0 0 0 0 0 0 0 0 0 0 0 0 0 0 0 0 0 0 0.25 0"/>
<feBlend mode="normal" in2="BackgroundImageFix" result="effect1_dropShadow_0_1"/>
<feBlend mode="normal" in="SourceGraphic" in2="effect1_dropShadow_0_1" result="shape"/>
</filter>
<filter id="filter1_d_0_1" x="128.014" y="0.259979" width="94.9856" height="250.74" filterUnits="userSpaceOnUse" color-interpolation-filters="sRGB">
<feFlood flood-opacity="0" result="BackgroundImageFix"/>
<feColorMatrix in="SourceAlpha" type="matrix" values="0 0 0 0 0 0 0 0 0 0 0 0 0 0 0 0 0 0 127 0" result="hardAlpha"/>
<feOffset dy="4"/>
<feGaussianBlur stdDeviation="2"/>
<feComposite in2="hardAlpha" operator="out"/>
<feColorMatrix type="matrix" values="0 0 0 0 0 0 0 0 0 0 0 0 0 0 0 0 0 0 0.25 0"/>
<feBlend mode="normal" in2="BackgroundImageFix" result="effect1_dropShadow_0_1"/>
<feBlend mode="normal" in="SourceGraphic" in2="effect1_dropShadow_0_1" result="shape"/>
</filter>
<linearGradient id="paint0_linear_0_1" x1="69.8633" y1="3" x2="69.8633" y2="242.566" gradientUnits="userSpaceOnUse">
<stop stop-color="#7B0000"/>
<stop offset="1" stop-color="#7B0000" stop-opacity="0"/>
</linearGradient>
<linearGradient id="paint1_linear_0_1" x1="175.507" y1="0.259979" x2="175.507" y2="243" gradientUnits="userSpaceOnUse">
<stop stop-color="#7B0000"/>
<stop offset="1" stop-color="#7B0000" stop-opacity="0"/>
</linearGradient>
</defs>
</svg>
